<svg width="465" height="498" viewBox="0 0 465 498" fill="none" xmlns="http://www.w3.org/2000/svg">
<path d="M232.095 351.419C358.069 351.419 460.19 305.475 460.19 248.8C460.19 192.125 358.069 146.181 232.095 146.181C106.122 146.181 4 192.125 4 248.8C4 305.475 106.122 351.419 232.095 351.419Z" stroke="#F02E65" stroke-width="8"/>
<path d="M143.204 300.109C206.191 409.18 297.05 474.628 346.143 446.29C395.236 417.953 383.973 306.561 320.987 197.49C258 88.4195 167.141 22.9721 118.048 51.3095C68.9543 79.647 80.2172 191.039 143.204 300.109Z" stroke="#F02E65" stroke-width="8"/>
<path d="M143.204 197.49C80.2172 306.561 68.9543 417.953 118.048 446.29C167.141 474.628 258 409.18 320.987 300.11C383.973 191.039 395.236 79.647 346.143 51.3095C297.05 22.9721 206.191 88.4195 143.204 197.49Z" stroke="#F02E65" stroke-width="8"/>
<path d="M232.095 294.408C257.29 294.408 277.714 273.989 277.714 248.8C277.714 223.611 257.29 203.192 232.095 203.192C206.901 203.192 186.476 223.611 186.476 248.8C186.476 273.989 206.901 294.408 232.095 294.408Z" fill="#F02E65"/>
<path d="M234.517 225.317C234.424 225.546 233.247 230.201 231.979 235.723C230.663 241.244 228.578 249.959 227.401 255.116C225.132 264.561 223.772 270.767 223.772 271.589C223.772 271.815 225.178 272 226.9 272H230.029L231.433 265.701C232.251 262.28 234.065 254.431 235.515 248.271C236.966 242.11 238.733 234.627 239.414 231.614C240.093 228.602 240.773 225.866 240.91 225.546C241.047 225.136 240.274 225 237.918 225C236.149 225 234.606 225.136 234.517 225.317ZM210.171 245.076L206 249.64L207.226 251.099C207.903 251.92 209.764 253.974 211.351 255.663L214.252 258.765H222.503L218.605 254.521C216.473 252.242 214.705 250.05 214.705 249.777C214.705 249.458 216.338 247.405 218.333 245.214C220.327 242.98 221.959 241.06 221.959 240.833C221.959 240.65 220.236 240.513 218.152 240.513H214.389L210.171 245.076ZM241.906 240.786C241.906 240.925 242.677 241.79 243.627 242.749C247.166 246.308 249.659 249.322 249.522 249.913C249.433 250.234 247.708 252.376 245.624 254.613L241.863 258.765H246.077L250.294 258.72L254.146 254.477C256.278 252.106 258 250.004 258 249.73C258 249.504 256.187 247.358 253.919 244.941L249.841 240.513H245.895C243.673 240.513 241.906 240.65 241.906 240.786Z" fill="white"/>
</svg>
